<svg id="图层_2" data-name="图层 2" xmlns="http://www.w3.org/2000/svg" viewBox="0 0 564.04 527.6"><defs><style>.cls-1{fill:none;stroke:#000;stroke-miterlimit:10;stroke-width:18px;}</style></defs><title>原图</title><circle class="cls-1" cx="282.02" cy="282.02" r="42.12"/><path class="cls-1" d="M992.52,615.26" transform="translate(-677.97 -258.35)"/><path class="cls-1" d="M1000.18,611.43" transform="translate(-677.97 -258.35)"/><path class="cls-1" d="M1041.65,540.37a81.6,81.6,0,0,1-41,70.77" transform="translate(-677.97 -258.35)"/><path class="cls-1" d="M1041.65,540.37" transform="translate(-677.97 -258.35)"/><path class="cls-1" d="M919.3,469.6a81.63,81.63,0,0,1,81.65.13" transform="translate(-677.97 -258.35)"/><path class="cls-1" d="M879.08,529.53" transform="translate(-677.97 -258.35)"/><path class="cls-1" d="M879.08,529.53" transform="translate(-677.97 -258.35)"/><path class="cls-1" d="M878.36,538.72" transform="translate(-677.97 -258.35)"/><path class="cls-1" d="M919,611a81.76,81.76,0,0,1-40.7-70.64" transform="translate(-677.97 -258.35)"/><path class="cls-1" d="M920,611.55" transform="translate(-677.97 -258.35)"/><path class="cls-1" d="M920.45,611.8" transform="translate(-677.97 -258.35)"/><path class="cls-1" d="M828.17,779.45" transform="translate(-677.97 -258.35)"/><path class="cls-1" d="M1086.76,782.13" transform="translate(-677.97 -258.35)"/><path class="cls-1" d="M1095.4,777.4" transform="translate(-677.97 -258.35)"/><path class="cls-1" d="M1095.67,777.24" transform="translate(-677.97 -258.35)"/><path class="cls-1" d="M1233,540.37a272.89,272.89,0,0,1-137,236.65" transform="translate(-677.97 -258.35)"/><path class="cls-1" d="M1233,540.37" transform="translate(-677.97 -258.35)"/><path class="cls-1" d="M1232.92,532.71" transform="translate(-677.97 -258.35)"/><path class="cls-1" d="M1097.05,304.24" transform="translate(-677.97 -258.35)"/><path class="cls-1" d="M823.92,303.73a272.85,272.85,0,0,1,273,.45" transform="translate(-677.97 -258.35)"/><path class="cls-1" d="M687.6,522.07" transform="translate(-677.97 -258.35)"/><path class="cls-1" d="M687.36,526" transform="translate(-677.97 -258.35)"/><path class="cls-1" d="M687,536.41" transform="translate(-677.97 -258.35)"/><path class="cls-1" d="M687,539.7" transform="translate(-677.97 -258.35)"/><path class="cls-1" d="M687,540.2" transform="translate(-677.97 -258.35)"/><path class="cls-1" d="M823.05,776.56A273.32,273.32,0,0,1,687,540.43" transform="translate(-677.97 -258.35)"/><line class="cls-1" x1="418.09" y1="518.67" x2="322.72" y2="352.79"/><line class="cls-1" x1="145.95" y1="45.38" x2="241.33" y2="211.25"/><line class="cls-1" x1="145.08" y1="518.21" x2="241.07" y2="352.66"/><line class="cls-1" x1="418.96" y1="45.83" x2="322.98" y2="211.39"/><path class="cls-1" d="M687,538.8" transform="translate(-677.97 -258.35)"/><path class="cls-1" d="M687,539" transform="translate(-677.97 -258.35)"/><line class="cls-1" x1="200.37" y1="282.02" x2="9" y2="282.02"/><path class="cls-1" d="M1041.64,540.37" transform="translate(-677.97 -258.35)"/><line class="cls-1" x1="555.04" y1="282.02" x2="363.67" y2="282.02"/><circle cx="9" cy="282.08" r="9"/><circle cx="200.37" cy="282.02" r="9"/><circle cx="363.67" cy="282.08" r="9"/><circle cx="555.04" cy="282.02" r="9"/><circle cx="322.72" cy="352.81" r="9"/><circle cx="418.3" cy="518.6" r="9"/><circle cx="145.95" cy="45.38" r="9"/><circle cx="241.53" cy="211.17" r="9"/><circle cx="418.94" cy="45.87" r="9"/><circle cx="323.13" cy="211.53" r="9"/><circle cx="241.07" cy="352.66" r="9"/><circle cx="145.26" cy="518.32" r="9"/></svg>